<svg width="401" height="105" viewBox="0 0 401 105" fill="none" xmlns="http://www.w3.org/2000/svg">
<g clip-path="url(#clip0_37_6)">
<path d="M1.21332 0.466735C1.21332 1.62548 1.60159 3.60502 2.15164 5.22244C3.12232 8.07908 4.74821 10.646 7.11828 13.0681C12.91 18.9745 22.1072 22.4991 34.9848 23.7463C36.3842 23.8751 39.2396 24.0602 39.9757 24.0602C40.55 24.0602 40.8008 24.1085 41.3751 24.3096C44.3195 25.3396 47.3367 27.464 49.3104 29.8942L49.9009 30.6184L49.5207 30.6988C49.181 30.7713 49.0758 30.7552 48.5419 30.554C45.824 29.5079 41.7957 29.1699 38.8109 29.7332C38.2851 29.8298 38.2608 29.8298 37.7189 29.5964C36.0283 28.8883 32.9949 27.9629 30.3741 27.3594C29.7027 27.1985 28.1173 26.9168 26.8149 26.7156C23.5308 26.2087 19.1628 26.1765 15.9353 26.6352C10.1355 27.456 4.98279 29.8539 0.736072 33.7084L-0.024292 34.4004L0.655182 35.0281C4.36802 38.4802 8.98683 40.6448 13.816 41.2C14.9403 41.3288 17.7553 41.3046 18.8311 41.1678C25.1082 40.3229 31.1506 37.1203 37.3387 31.3346L38.3984 30.3448L39.1587 30.208C40.1941 30.031 42.9444 29.9666 44.1092 30.0953C45.2335 30.216 46.6329 30.4977 47.6764 30.8276L48.4691 31.069L47.7573 31.5357C45.2902 33.121 41.9656 36.8225 39.7735 40.4195C38.7057 42.1576 38.4388 42.8577 37.5248 46.1488C36.8695 48.5307 37.0151 48.2732 36.0121 48.8124C35.4054 49.1503 34.9848 49.44 34.5965 49.8182C34.1031 50.301 34.006 50.3654 33.5612 50.4459C32.9545 50.5666 31.4499 51.0735 30.7057 51.4115C30.0101 51.7253 28.7725 52.4495 28.0283 52.9726C22.4712 56.8914 18.3943 64.3267 17.1082 72.8645C16.7684 75.1498 16.7037 76.051 16.7118 78.6582C16.7199 82.4161 17.092 85.1842 18.006 88.3064C21.0475 98.6306 28.4327 104.392 36.4408 102.686C40.9949 101.713 45.4519 98.1317 48.5662 92.9414C49.1243 92.016 50.2002 89.956 50.3943 89.441L50.4752 89.2238L50.9525 89.6663C53.9292 92.4023 57.3427 94.068 61.1527 94.6313C62.0344 94.76 64.364 94.7439 65.3185 94.5991C72.0566 93.5852 77.2335 88.4835 79.2315 80.9113C79.4338 80.1469 79.6522 78.9881 79.8058 77.8938C80 76.4936 80 73.2829 79.8058 71.7781C79.0536 65.9281 76.635 60.7137 72.8898 56.8753C71.1749 55.1131 69.4277 53.7853 67.4621 52.7553C63.369 50.6229 58.8716 50.2125 54.8433 51.5966C53.9373 51.9024 53.8807 51.9104 52.6997 51.9345C51.8584 51.9426 51.4216 51.9185 51.276 51.846C50.6855 51.5724 49.8443 49.5929 49.3104 47.2352C49.1648 46.6075 48.9707 44.3946 48.8979 42.6082C48.7846 39.832 49.1243 38.625 50.9525 35.3017C51.9878 33.4267 52.093 33.0163 51.7533 32.1312C51.6319 31.7852 51.454 31.5357 51.0981 31.1897C50.8311 30.9322 50.4024 30.4413 50.1516 30.1034C48.1375 27.3996 45.0071 25.066 41.8604 23.9073C41.4075 23.7383 41.3508 23.69 41.0596 23.1911C39.8139 21.0587 37.6704 18.2584 35.4297 15.8121C29.5248 9.39072 22.0586 4.61088 14.0263 2.13244C10.2568 0.973688 6.33365 0.281661 2.08693 0.0402548L1.21332 -0.00803063V0.466735ZM47.7978 35.9052C47.2477 39.132 47.2153 43.6221 47.7169 46.5914C47.7978 47.0823 48.4125 48.8445 49.1648 50.7758C49.4317 51.4598 49.7068 52.192 49.7796 52.4013L49.9009 52.7795L49.4641 53.6807C49.2295 54.1796 49.003 54.7188 48.9787 54.8717C48.9383 55.0728 48.7765 55.3223 48.4125 55.7005L47.9029 56.2477L47.5308 55.781C46.908 55.0326 45.549 53.6888 44.8534 53.1496C43.8503 52.3771 43.2356 51.9909 42.1597 51.4517C41.2376 50.9931 41.1486 50.9206 40.7765 50.4378C40.2912 49.8021 39.6602 49.2388 39.094 48.9492C38.8594 48.8285 38.6249 48.6353 38.5682 48.5307C38.2204 47.887 38.7624 45.5856 39.7492 43.4934C40.1213 42.7048 41.3185 40.7816 42.2811 39.4056C43.2437 38.0456 43.8908 37.3536 44.732 36.7742C45.4358 36.2995 47.6683 35.0924 47.8463 35.0844C47.9029 35.0844 47.8867 35.3741 47.7978 35.9052Z" fill="black"/>
</g>
<path d="M89.8184 91.5474L89.8088 89.6274C90.8966 89.59 91.7601 89.4897 92.3993 89.3265C93.0705 89.1631 93.5811 88.8886 93.9312 88.5028C94.3133 88.1169 94.5666 87.5716 94.6911 86.867C94.8156 86.1624 94.875 85.2501 94.8694 84.1301L94.7588 61.9544C94.7533 60.8344 94.7008 59.9386 94.6014 59.2671C94.5019 58.5636 94.2912 58.0206 93.9693 57.6382C93.6792 57.2237 93.2619 56.9538 92.7173 56.8285C92.2045 56.671 91.5159 56.5625 90.6516 56.5028L90.642 54.5828L106.05 54.506C110.882 54.4819 114.598 55.2473 117.197 56.8024C119.829 58.3253 121.152 60.5267 121.166 63.4067C121.185 67.2146 118.463 69.9163 112.999 71.5115L113 71.7035C114.76 71.6947 116.345 71.9428 117.755 72.4478C119.198 72.9206 120.417 73.6026 121.414 74.4936C122.41 75.3846 123.183 76.4368 123.733 77.6501C124.284 78.8633 124.562 80.19 124.569 81.6299C124.577 83.2619 124.185 84.6879 123.391 85.9079C122.629 87.1277 121.514 88.1573 120.046 88.9966C117.206 90.6108 113.29 91.4303 108.298 91.4552L89.8184 91.5474ZM108.62 88.5256C113.771 88.4999 116.336 86.1671 116.313 81.5271C116.299 78.6792 115.36 76.6038 113.498 75.3011C112.534 74.6339 111.284 74.1601 109.747 73.8798C108.241 73.5993 106.384 73.4645 104.176 73.4755L101.872 73.487L101.92 83.0869C101.93 85.0709 102.449 86.4763 103.477 87.3032C104.506 88.1301 106.22 88.5375 108.62 88.5256ZM104.69 70.5929C106.13 70.5858 107.377 70.4515 108.432 70.1903C109.487 69.897 110.381 69.4926 111.114 68.9769C112.645 67.9132 113.405 66.2614 113.393 64.0215C113.382 61.6855 112.797 60.0084 111.64 58.9901C110.483 57.9399 108.624 57.4212 106.064 57.4339L102.656 57.4509C102.08 57.4538 101.794 57.7272 101.797 58.2712L101.858 70.6071L104.69 70.5929ZM138.066 83.4347C138.073 84.7146 138.126 85.7384 138.225 86.5059C138.325 87.2734 138.52 87.8645 138.81 88.279C139.1 88.6936 139.518 88.9795 140.063 89.1368C140.607 89.2621 141.344 89.3384 142.272 89.3658L142.281 91.2857L127.162 91.3611L127.152 89.4412C128.048 89.4047 128.767 89.3051 129.31 89.1424C129.886 88.9475 130.316 88.6574 130.602 88.2719C130.92 87.8544 131.125 87.2933 131.218 86.5889C131.342 85.8522 131.401 84.9239 131.396 83.8039L131.297 63.9802C131.288 62.1242 131.248 60.6044 131.178 59.4207C131.108 58.205 131.024 57.3735 130.926 56.9259C130.762 56.1267 130.391 55.6006 129.814 55.3475C129.269 55.0942 128.26 54.9712 126.788 54.9786L126.78 53.3466L137.907 51.4671L138.066 83.4347ZM159.755 77.5184C157.073 78.7478 155.047 79.8939 153.676 80.9568C152.338 81.9875 151.671 83.0628 151.677 84.1828C151.681 85.1108 151.941 85.8455 152.456 86.3869C152.97 86.9284 153.612 87.1972 154.38 87.1934C155.148 87.1895 155.867 87.0579 156.538 86.7986C157.208 86.5072 157.782 86.1364 158.26 85.686C158.738 85.2356 159.103 84.7058 159.356 84.0965C159.641 83.4551 159.782 82.7824 159.778 82.0784L159.755 77.5184ZM159.743 74.9745L159.733 72.9585C159.723 71.1025 159.381 69.7602 158.705 68.9316C158.06 68.0708 157.05 67.6438 155.674 67.6507C154.746 67.6553 154.043 67.9148 153.566 68.4292C153.088 68.9116 152.644 69.7298 152.234 70.8839C151.95 71.6853 151.537 72.3113 150.996 72.7621C150.486 73.2126 149.767 73.4402 148.839 73.4448C147.943 73.4493 147.254 73.1807 146.771 72.6391C146.288 72.0975 146.044 71.3307 146.039 70.3387C146.032 68.8028 146.858 67.5826 148.517 66.6783C150.209 65.7739 152.75 65.3132 156.142 65.2963C159.726 65.2784 162.29 65.9216 163.832 67.226C165.374 68.4983 166.153 70.6544 166.168 73.6944L166.221 84.2063C166.234 86.9262 166.785 88.2835 167.873 88.2781C168.481 88.2751 169.04 88.0643 169.55 87.6457L170.277 89.0341C169.833 89.8363 169.132 90.4798 168.175 90.9646C167.249 91.4172 166.194 91.6465 165.01 91.6524C163.538 91.6597 162.416 91.2173 161.643 90.3252C160.871 89.433 160.481 88.1709 160.472 86.539L160.232 86.5402C159.313 88.2088 158.119 89.4787 156.651 90.3501C155.184 91.2214 153.506 91.6618 151.618 91.6712C149.602 91.6812 147.983 91.1293 146.762 90.0154C145.54 88.8695 144.924 87.3845 144.915 85.5605C144.908 84.1526 145.526 82.8375 146.768 81.6153C148.009 80.361 150.083 79.1347 152.989 77.9362L159.743 74.9745ZM196.198 87.0328C194.989 88.3829 193.474 89.4304 191.653 90.1755C189.865 90.9205 187.915 91.2982 185.803 91.3087C183.851 91.3184 182.074 91.0233 180.471 90.4233C178.867 89.7913 177.487 88.9182 176.329 87.8039C175.172 86.6897 174.269 85.3502 173.621 83.7854C173.005 82.1884 172.693 80.43 172.683 78.51C172.673 76.526 173 74.7163 173.664 73.081C174.328 71.4457 175.265 70.049 176.475 68.8909C177.685 67.7009 179.137 66.7816 180.829 66.1332C182.522 65.4847 184.393 65.1554 186.441 65.1452C187.881 65.138 189.209 65.2754 190.427 65.5573C191.676 65.8391 192.734 66.2338 193.601 66.7415C194.499 67.249 195.206 67.8535 195.722 68.555C196.237 69.2244 196.497 69.9591 196.501 70.7591C196.505 71.6871 196.237 72.4244 195.696 72.9712C195.186 73.5177 194.484 73.7932 193.588 73.7977C192.852 73.8013 192.195 73.6126 191.617 73.2315C191.071 72.8502 190.524 72.2289 189.976 71.3677C189.492 70.6021 189.073 69.9961 188.719 69.5499C188.396 69.1035 188.091 68.769 187.802 68.5465C187.512 68.2919 187.223 68.1333 186.935 68.0708C186.647 67.9762 186.294 67.93 185.878 67.932C184.022 67.9413 182.587 68.8125 181.571 70.5456C180.556 72.2786 180.056 74.6972 180.072 77.8011C180.088 81.1291 180.709 83.686 181.934 85.4719C183.191 87.2577 184.971 88.1448 187.275 88.1333C188.587 88.1268 189.898 87.8802 191.208 87.3937C192.517 86.8752 193.761 86.149 194.941 85.2151L196.198 87.0328ZM215.142 89.0024C216.166 88.9973 216.885 88.9617 217.301 88.8956C217.717 88.7975 217.924 88.6205 217.922 88.3645C217.922 88.1725 217.695 87.7096 217.244 86.9759C216.824 86.21 216.275 85.3327 215.598 84.344L211.923 78.8903L209.535 81.2062L209.544 83.0782C209.55 84.3262 209.603 85.334 209.703 86.1015C209.803 86.869 209.966 87.4762 210.192 87.923C210.45 88.3378 210.788 88.6241 211.204 88.782C211.653 88.9398 212.214 89.017 212.886 89.0136L212.895 90.9336L198.735 91.0042L198.726 89.0842C199.622 89.0478 200.341 88.9482 200.884 88.7855C201.428 88.6228 201.858 88.3486 202.176 87.963C202.494 87.5454 202.699 86.9844 202.792 86.2799C202.916 85.5433 202.975 84.599 202.97 83.447L202.868 63.0953C202.859 61.1433 202.819 59.6075 202.749 58.4878C202.68 57.3681 202.5 56.537 202.209 55.9945C201.95 55.4197 201.532 55.0698 200.956 54.9447C200.411 54.8194 199.659 54.7592 198.699 54.7639L198.69 52.988L209.385 51.1106L209.518 77.7983L214.104 73.4074C215.76 71.8311 216.938 70.6572 217.638 69.8857C218.338 69.0822 218.687 68.5044 218.686 68.1524C218.684 67.8644 218.379 67.674 217.771 67.581C217.194 67.4559 216.106 67.3973 214.506 67.4053L214.496 65.4853L227.6 65.42L227.61 67.3399C226.394 67.346 225.323 67.5593 224.397 67.98C223.471 68.4006 222.467 69.1256 221.384 70.155L216.75 74.5462L225.112 86.2646C225.853 87.2849 226.577 87.9853 227.283 88.3658C227.988 88.7463 228.917 88.9337 230.069 88.9279L230.079 90.8479L215.151 90.9224L215.142 89.0024ZM264.358 53.2365C267.238 53.2221 269.928 53.7047 272.429 54.6843C274.93 55.6638 277.097 57.013 278.929 58.7319C280.794 60.4506 282.26 62.4753 283.328 64.8061C284.395 67.1368 284.936 69.6621 284.949 72.3821C284.962 74.974 284.431 77.4087 283.354 79.6861C282.309 81.9633 280.863 83.9546 279.016 85.6598C277.2 87.3329 275.047 88.6716 272.556 89.6761C270.064 90.6485 267.395 91.1418 264.547 91.156C261.699 91.1702 259.025 90.7036 256.524 89.756C254.023 88.7765 251.84 87.4594 249.976 85.8046C248.112 84.1179 246.646 82.1412 245.578 79.8745C244.511 77.6078 243.971 75.1784 243.958 72.5865C243.944 69.8665 244.46 67.3359 245.504 64.9947C246.548 62.6534 247.978 60.6143 249.794 58.8772C251.641 57.14 253.81 55.7691 256.301 54.7647C258.792 53.7603 261.478 53.2509 264.358 53.2365ZM264.531 88.0361C266.387 88.0268 268.065 87.6664 269.566 86.955C271.066 86.2115 272.341 85.1811 273.391 83.8638C274.44 82.5146 275.232 80.8946 275.766 79.0039C276.333 77.0811 276.61 74.9357 276.598 72.5677C276.586 70.0717 276.287 67.8332 275.701 65.8521C275.147 63.8388 274.338 62.1308 273.275 60.7281C272.212 59.2934 270.927 58.2118 269.419 57.4833C267.911 56.7228 266.229 56.3472 264.373 56.3565C262.485 56.3659 260.791 56.7583 259.291 57.5338C257.823 58.2772 256.564 59.3714 255.515 60.8167C254.466 62.2299 253.659 63.946 253.093 65.9648C252.559 67.9515 252.298 70.1929 252.311 72.6888C252.322 75.0568 252.605 77.1994 253.159 79.1167C253.744 81.0018 254.568 82.6137 255.631 83.9524C256.693 85.2591 257.962 86.2768 259.438 87.0055C260.946 87.702 262.643 88.0455 264.531 88.0361ZM298.47 82.6348C298.477 83.9147 298.53 84.9385 298.63 85.706C298.73 86.4735 298.924 87.0646 299.215 87.4791C299.505 87.8937 299.922 88.1796 300.467 88.3369C301.011 88.4622 301.748 88.5385 302.676 88.5659L302.686 90.4858L287.566 90.5612L287.556 88.6413C288.452 88.6048 289.172 88.5052 289.715 88.3425C290.29 88.1476 290.72 87.8575 291.006 87.472C291.324 87.0545 291.53 86.4934 291.622 85.789C291.746 85.0523 291.806 84.124 291.8 83.004L291.701 63.1803C291.692 61.3243 291.652 59.8045 291.583 58.6208C291.512 57.4051 291.428 56.5736 291.33 56.126C291.166 55.3268 290.795 54.8007 290.218 54.5476C289.673 54.2943 288.664 54.1713 287.192 54.1786L287.184 52.5467L298.311 50.6672L298.47 82.6348ZM316.013 82.5473C316.019 83.8273 316.072 84.851 316.172 85.6185C316.272 86.386 316.467 86.9771 316.757 87.3916C317.047 87.8062 317.464 88.0921 318.009 88.2494C318.554 88.3747 319.29 88.451 320.218 88.4784L320.228 90.3984L305.108 90.4738L305.098 88.5538C305.994 88.5173 306.714 88.4177 307.257 88.255C307.832 88.0601 308.263 87.77 308.549 87.3846C308.867 86.967 309.072 86.4059 309.164 85.7015C309.289 84.9648 309.348 84.0365 309.342 82.9165L309.313 77.0126C309.304 75.1566 309.264 73.6368 309.194 72.4532C309.124 71.2375 309.04 70.4059 308.942 69.9584C308.778 69.1592 308.407 68.633 307.83 68.3799C307.285 68.1266 306.276 68.0037 304.804 68.011L304.796 66.379L315.923 64.4995L316.013 82.5473ZM308.816 54.3588C308.811 53.3028 309.158 52.4211 309.859 51.7136C310.591 50.9739 311.469 50.6015 312.493 50.5964C313.549 50.5912 314.431 50.9548 315.139 51.6873C315.878 52.3876 316.251 53.2657 316.256 54.3217C316.261 55.3457 315.897 56.2275 315.165 56.9672C314.465 57.6747 313.586 58.0311 312.53 58.0363C311.506 58.0414 310.625 57.6938 309.885 56.9935C309.178 56.261 308.821 55.3828 308.816 54.3588ZM325.343 71.1246C324.986 70.1984 324.647 69.4641 324.324 68.9217C324.001 68.3473 323.663 67.9169 323.309 67.6307C322.988 67.3123 322.619 67.1061 322.202 67.0122C321.818 66.9181 321.354 66.8725 320.81 66.8752L320.8 64.9552L335.152 64.8836L335.161 66.8036C334.361 66.8076 333.722 66.8428 333.242 66.9092C332.794 66.9754 332.443 67.0732 332.187 67.2024C331.964 67.3315 331.821 67.5083 331.758 67.7326C331.695 67.9249 331.664 68.1491 331.665 68.405C331.667 68.821 331.75 69.3006 331.913 69.8438C332.075 70.387 332.27 70.9301 332.497 71.4729L337.119 84.026L337.311 84.0251L342.385 71.4716C342.606 70.9265 342.78 70.4457 342.906 70.029C343.031 69.5804 343.093 69.1801 343.092 68.8281C343.088 68.1241 342.846 67.6133 342.364 67.2957C341.882 66.9781 341.033 66.8063 339.817 66.7804L339.808 64.8604L350.416 64.8075L350.425 66.7275C349.561 66.7318 348.81 66.9595 348.173 67.4107C347.567 67.8617 346.932 68.8569 346.267 70.3963L337.393 90.7928L333.025 90.8145L325.343 71.1246ZM375.41 85.6591C372.514 88.9696 368.891 90.6357 364.539 90.6574C362.555 90.6673 360.745 90.3723 359.11 89.7725C357.507 89.1404 356.127 88.2673 354.969 87.1531C353.811 86.0068 352.908 84.6513 352.261 83.0865C351.613 81.5217 351.284 79.7794 351.275 77.8594C351.265 75.8754 351.592 74.0658 352.256 72.4304C352.919 70.7631 353.856 69.3344 355.066 68.1444C356.308 66.9221 357.759 65.9709 359.42 65.2906C361.113 64.6102 362.967 64.2649 364.983 64.2549C368.375 64.2379 371.019 65.1368 372.916 66.9513C374.814 68.7659 375.77 71.3211 375.787 74.6171C375.789 75.1291 375.711 75.4495 375.552 75.5783C375.392 75.6751 374.944 75.7253 374.208 75.729L358.752 75.8061C358.626 76.0947 358.565 76.623 358.568 77.391C358.584 80.527 359.268 83.0036 360.621 84.8209C362.007 86.638 363.867 87.5407 366.203 87.5291C367.547 87.5224 368.873 87.2117 370.182 86.5972C371.523 85.9825 372.815 85.1121 374.057 83.9858L375.41 85.6591ZM366.035 73.0817C367.315 73.0753 368.131 73.0073 368.482 72.8775C368.865 72.7156 369.055 72.3626 369.053 71.8186C369.046 70.4107 368.64 69.2607 367.835 68.3687C367.031 67.4767 366.021 67.0337 364.805 67.0398C363.429 67.0466 362.2 67.6288 361.117 68.7862C360.067 69.9114 359.386 71.3548 359.075 73.1164L366.035 73.0817ZM381.67 90.092L380.182 90.0994L380.139 81.3635L382.155 81.3534C382.71 83.6547 383.502 85.3308 384.532 86.3816C385.561 87.4325 386.892 87.9539 388.523 87.9458C389.707 87.9399 390.618 87.6953 391.256 87.2121C391.925 86.6968 392.258 86.0071 392.254 85.1431C392.249 84.2471 391.845 83.3851 391.041 82.5571C390.236 81.6971 388.936 80.7916 387.139 79.8406C384.701 78.5407 382.95 77.2534 381.888 75.9787C380.825 74.672 380.29 73.2026 380.282 71.5707C380.276 70.5147 380.464 69.5377 380.843 68.6398C381.254 67.7098 381.794 66.907 382.463 66.2317C383.164 65.5562 383.993 65.0401 384.951 64.6833C385.91 64.2945 386.949 64.0973 388.069 64.0917C389.061 64.0868 390.037 64.2259 390.999 64.5091C391.992 64.7922 392.858 65.1879 393.597 65.6962L394.455 64.5399L395.703 64.5337L395.739 71.7816L393.867 71.7909C393.122 69.9706 392.347 68.6624 391.543 67.8664C390.771 67.0703 389.825 66.675 388.705 66.6806C387.809 66.6851 387.091 66.9286 386.549 67.4113C386.039 67.8939 385.787 68.5352 385.791 69.3352C385.795 70.2311 386.183 71.0772 386.955 71.8734C387.759 72.6694 389.076 73.5428 390.904 74.4937C392.188 75.1913 393.295 75.8738 394.227 76.5412C395.158 77.2085 395.913 77.8928 396.493 78.5939C397.072 79.263 397.492 79.9809 397.752 80.7476C398.043 81.4822 398.191 82.2815 398.196 83.1455C398.201 84.2654 397.998 85.2745 397.587 86.1725C397.175 87.0706 396.587 87.8415 395.822 88.4854C395.057 89.1292 394.132 89.6298 393.046 89.9872C391.992 90.3445 390.808 90.5264 389.496 90.5329C388.12 90.5398 386.84 90.3702 385.654 90.0241C384.468 89.646 383.489 89.1069 382.718 88.4067L381.67 90.092Z" fill="black"/>
<defs>
<clipPath id="clip0_37_6">
<rect width="80" height="103" fill="white"/>
</clipPath>
</defs>
</svg>
