<svg width="256" height="429" viewBox="0 0 256 429" fill="none" xmlns="http://www.w3.org/2000/svg">
<g clip-path="url(#clip0_6_121)">
<path d="M39.862 99.1017C39.862 101.79 40.7599 106.384 42.0319 110.137C44.2765 116.765 48.0364 122.722 53.5172 128.342C66.9105 142.047 88.179 150.225 117.959 153.119C121.195 153.418 127.798 153.848 129.5 153.848C130.828 153.848 131.408 153.96 132.736 154.426C139.545 156.816 146.522 161.746 151.086 167.385L152.452 169.065L151.573 169.252C150.787 169.42 150.544 169.383 149.309 168.916C143.024 166.488 133.709 165.704 126.806 167.011C125.59 167.235 125.534 167.235 124.281 166.694C120.372 165.051 113.357 162.903 107.296 161.503C105.744 161.13 102.077 160.476 99.0657 160.009C91.4712 158.833 81.3701 158.758 73.9065 159.823C60.4944 161.727 48.5789 167.291 38.7583 176.235L37 177.841L38.5713 179.297C47.1572 187.308 57.8382 192.33 69.0056 193.619C71.6057 193.917 78.1153 193.861 80.6031 193.544C95.1188 191.583 109.092 184.152 123.402 170.727L125.852 168.43L127.611 168.113C130.005 167.702 136.365 167.553 139.059 167.852C141.659 168.132 144.895 168.785 147.308 169.551L149.141 170.111L147.495 171.194C141.79 174.872 134.102 183.461 129.032 191.808C126.563 195.841 125.946 197.465 123.832 205.102C122.317 210.629 122.654 210.031 120.334 211.282C118.931 212.067 117.959 212.739 117.061 213.616C115.92 214.737 115.695 214.886 114.666 215.073C113.263 215.353 109.784 216.529 108.063 217.313C106.455 218.042 103.593 219.722 101.872 220.936C89.0207 230.029 79.593 247.282 76.6188 267.093C75.8332 272.395 75.6835 274.487 75.7022 280.536C75.7209 289.256 76.5814 295.679 78.6951 302.924C85.7285 326.88 102.807 340.249 121.326 336.291C131.857 334.031 142.164 325.722 149.366 313.679C150.656 311.532 153.144 306.752 153.593 305.557L153.78 305.052L154.884 306.079C161.767 312.428 169.661 316.293 178.472 317.6C180.511 317.899 185.898 317.861 188.105 317.525C203.687 315.173 215.659 303.335 220.279 285.764C220.747 283.991 221.252 281.302 221.607 278.762C222.056 275.514 222.056 268.063 221.607 264.572C219.868 250.997 214.275 238.898 205.614 229.992C201.648 225.902 197.608 222.822 193.062 220.432C183.597 215.483 173.197 214.531 163.881 217.743C161.786 218.452 161.655 218.471 158.924 218.527C156.979 218.546 155.969 218.49 155.632 218.322C154.266 217.687 152.321 213.093 151.086 207.623C150.75 206.166 150.301 201.031 150.132 196.886C149.871 190.444 150.656 187.644 154.884 179.932C157.278 175.582 157.521 174.629 156.736 172.576C156.455 171.773 156.043 171.194 155.22 170.391C154.603 169.793 153.612 168.654 153.032 167.87C148.374 161.596 141.135 156.182 133.858 153.493C132.811 153.101 132.68 152.989 132.007 151.831C129.126 146.883 124.169 140.385 118.987 134.709C105.332 119.809 88.0667 108.718 69.4919 102.967C60.775 100.278 51.7027 98.6722 41.8822 98.1121L39.862 98V99.1017ZM147.588 181.333C146.316 188.82 146.242 199.239 147.401 206.129C147.588 207.268 149.01 211.357 150.75 215.838C151.367 217.425 152.003 219.124 152.171 219.61L152.452 220.488L151.442 222.579C150.899 223.736 150.376 224.987 150.32 225.342C150.226 225.809 149.852 226.388 149.01 227.265L147.832 228.535L146.971 227.452C145.531 225.716 142.388 222.597 140.78 221.346C138.46 219.554 137.038 218.658 134.551 217.407C132.418 216.342 132.212 216.174 131.352 215.054C130.23 213.579 128.77 212.272 127.461 211.6C126.919 211.32 126.376 210.872 126.245 210.629C125.441 209.135 126.694 203.795 128.976 198.94C129.837 197.11 132.605 192.648 134.831 189.455C137.057 186.299 138.554 184.694 140.499 183.349C142.126 182.248 147.289 179.447 147.701 179.428C147.832 179.428 147.794 180.1 147.588 181.333Z" fill="#101706"/>
<path d="M22.584 71V68.416C24.352 68.3707 25.7573 68.2347 26.8 68.008C27.888 67.7813 28.704 67.396 29.248 66.852C29.8373 66.308 30.2227 65.5373 30.404 64.54C30.6307 63.5427 30.744 62.2507 30.744 60.664V28.976C30.744 27.3893 30.6533 26.12 30.472 25.168C30.336 24.1707 30.0187 23.4 29.52 22.856C29.0667 22.2667 28.3867 21.8813 27.48 21.7C26.5733 21.4733 25.3947 21.3147 23.944 21.224V18.64H44.276C50.396 18.64 55.156 19.728 58.556 21.904C61.956 24.08 63.656 27.14 63.656 31.084C63.656 34.076 62.704 36.524 60.8 38.428C58.9413 40.332 55.972 41.896 51.892 43.12V43.392C53.2973 43.528 54.5213 43.6867 55.564 43.868C56.6067 44.0493 57.536 44.276 58.352 44.548C59.168 44.7747 59.916 45.0693 60.596 45.432C61.3213 45.7947 62.024 46.2027 62.704 46.656C66.7387 49.512 68.756 53.0933 68.756 57.4C68.756 59.8027 68.076 62.0467 66.716 64.132C65.4013 66.172 63.5427 67.7813 61.14 68.96C60.3693 69.368 59.576 69.708 58.76 69.98C57.944 70.2067 56.992 70.4107 55.904 70.592C54.816 70.728 53.5467 70.8413 52.096 70.932C50.6907 70.9773 49.0133 71 47.064 71H22.584ZM47.268 68.076C55.4733 68.076 59.576 64.5627 59.576 57.536C59.576 52.4133 57.468 48.832 53.252 46.792C52.5267 46.4747 51.824 46.2027 51.144 45.976C50.464 45.7493 49.6707 45.5907 48.764 45.5C47.8573 45.364 46.7693 45.2733 45.5 45.228C44.276 45.1827 42.7573 45.16 40.944 45.16H37.884V60.324C37.884 63.0893 38.6093 65.084 40.06 66.308C41.5107 67.4867 43.9133 68.076 47.268 68.076ZM41.692 41.76C43.0973 41.76 44.276 41.7373 45.228 41.692C46.18 41.6467 46.996 41.5787 47.676 41.488C48.356 41.352 48.9453 41.1933 49.444 41.012C49.988 40.7853 50.532 40.4907 51.076 40.128C52.5267 39.2213 53.5467 38.1333 54.136 36.864C54.7707 35.5947 55.088 33.94 55.088 31.9C55.088 28.3187 54.204 25.7573 52.436 24.216C50.7133 22.6293 47.9933 21.836 44.276 21.836H39.04C38.2693 21.836 37.884 22.2213 37.884 22.992V41.76H41.692ZM93.1409 60.392C93.1409 62.1147 93.2089 63.4973 93.3449 64.54C93.4809 65.5827 93.7529 66.3987 94.1609 66.988C94.6142 67.5773 95.2262 67.9853 95.9969 68.212C96.8129 68.4387 97.8782 68.5747 99.1929 68.62V71H80.4249V68.62C81.7849 68.5747 82.8729 68.4387 83.6889 68.212C84.5049 67.94 85.1396 67.532 85.5929 66.988C86.0916 66.444 86.4089 65.696 86.5449 64.744C86.7262 63.7467 86.8169 62.4547 86.8169 60.868V31.56C86.8169 29.112 86.7716 27.072 86.6809 25.44C86.6356 23.7627 86.5449 22.6293 86.4089 22.04C86.1822 20.9973 85.6382 20.2947 84.7769 19.932C83.9609 19.5693 82.4649 19.388 80.2889 19.388V17.076L93.1409 14.56V60.392ZM131.574 50.872C128.99 51.8693 126.792 52.844 124.978 53.796C123.21 54.748 121.782 55.7 120.694 56.652C119.606 57.604 118.813 58.556 118.314 59.508C117.861 60.46 117.634 61.4347 117.634 62.432C117.634 63.928 118.133 65.152 119.13 66.104C120.128 67.056 121.442 67.532 123.074 67.532C124.253 67.532 125.341 67.2373 126.338 66.648C127.381 66.0587 128.288 65.2653 129.058 64.268C129.829 63.2253 130.441 62.024 130.894 60.664C131.348 59.2587 131.574 57.7853 131.574 56.244V50.872ZM131.574 47.948V45.16C131.574 39.6293 129.217 36.864 124.502 36.864C123.732 36.864 123.074 36.932 122.53 37.068C121.986 37.204 121.533 37.4307 121.17 37.748C120.808 38.0653 120.468 38.5187 120.15 39.108C119.878 39.6973 119.606 40.4227 119.334 41.284C118.836 42.5987 118.337 43.4827 117.838 43.936C117.385 44.344 116.705 44.548 115.798 44.548C113.532 44.548 112.398 43.4147 112.398 41.148C112.398 38.972 113.554 37.2947 115.866 36.116C118.178 34.892 121.465 34.28 125.726 34.28C130.26 34.28 133.478 35.096 135.382 36.728C137.286 38.3147 138.238 41.0347 138.238 44.888V60.12C138.238 65.288 139.258 67.872 141.298 67.872C141.933 67.872 142.545 67.804 143.134 67.668C143.724 67.4867 144.222 67.056 144.63 66.376L145.582 68.008C145.038 69.0507 144.041 69.9347 142.59 70.66C141.14 71.34 139.621 71.68 138.034 71.68C136.04 71.68 134.544 71.0453 133.546 69.776C132.594 68.5067 132.118 66.716 132.118 64.404H131.778C130.6 66.6253 128.968 68.3933 126.882 69.708C124.797 70.9773 122.485 71.612 119.946 71.612C117.09 71.612 114.846 70.8867 113.214 69.436C111.582 67.9853 110.766 66.036 110.766 63.588C110.766 62.5 110.948 61.4573 111.31 60.46C111.718 59.4627 112.353 58.5107 113.214 57.604C114.076 56.6973 115.209 55.8133 116.614 54.952C118.02 54.0453 119.742 53.1387 121.782 52.232L131.574 47.948ZM186.703 65.356C185.071 67.3507 182.963 68.9147 180.379 70.048C177.795 71.136 175.007 71.68 172.015 71.68C169.612 71.68 167.391 71.2493 165.351 70.388C163.356 69.4813 161.633 68.2347 160.183 66.648C158.732 65.016 157.599 63.0667 156.783 60.8C156.012 58.5333 155.627 56.0173 155.627 53.252C155.627 50.3507 156.08 47.744 156.987 45.432C157.893 43.0747 159.163 41.08 160.795 39.448C162.472 37.7707 164.467 36.5013 166.779 35.64C169.136 34.7333 171.72 34.28 174.531 34.28C176.299 34.28 177.908 34.4387 179.359 34.756C180.809 35.028 182.056 35.436 183.099 35.98C184.187 36.4787 185.025 37.1133 185.615 37.884C186.204 38.6093 186.499 39.4027 186.499 40.264C186.499 41.1707 186.204 41.8733 185.615 42.372C185.025 42.8707 184.209 43.12 183.167 43.12C182.351 43.12 181.671 42.9613 181.127 42.644C180.583 42.2813 179.88 41.5107 179.019 40.332C178.112 39.2893 177.228 38.564 176.367 38.156C175.551 37.7027 174.485 37.476 173.171 37.476C169.952 37.476 167.504 38.7227 165.827 41.216C164.195 43.7093 163.379 47.3813 163.379 52.232C163.379 57.4453 164.285 61.412 166.099 64.132C167.957 66.8067 170.655 68.144 174.191 68.144C176.095 68.144 177.885 67.7813 179.563 67.056C181.24 66.2853 182.94 65.0613 184.663 63.384L186.703 65.356ZM219.216 68.62C220.712 68.62 221.732 68.552 222.276 68.416C222.865 68.28 223.16 68.0987 223.16 67.872C223.114 67.5093 222.752 66.852 222.072 65.9C221.392 64.948 220.508 63.8147 219.42 62.5L212.212 53.796L209.696 56.176V60.188C209.696 61.956 209.764 63.384 209.9 64.472C210.081 65.5147 210.376 66.3533 210.784 66.988C211.237 67.5773 211.872 67.9853 212.688 68.212C213.549 68.4387 214.66 68.5747 216.02 68.62V71H196.708V68.62C198.068 68.5747 199.156 68.4387 199.972 68.212C200.833 67.9853 201.49 67.5773 201.944 66.988C202.442 66.3987 202.782 65.6053 202.964 64.608C203.145 63.6107 203.236 62.296 203.236 60.664V32.172C203.236 28.7267 203.19 26.12 203.1 24.352C203.054 22.584 202.828 21.3827 202.42 20.748C202.012 20.1133 201.332 19.7507 200.38 19.66C199.428 19.524 198.158 19.456 196.572 19.456V17.144L209.696 14.56V51.892L216.02 45.704C218.06 43.664 219.578 42.168 220.576 41.216C221.573 40.2187 222.072 39.4707 222.072 38.972C222.072 38.4733 221.596 38.088 220.644 37.816C219.692 37.4987 218.332 37.34 216.564 37.34V34.96H234.244V37.34C233.382 37.34 232.634 37.3853 232 37.476C231.365 37.5667 230.753 37.748 230.164 38.02C229.62 38.292 229.03 38.6773 228.396 39.176C227.761 39.6293 227.036 40.2187 226.22 40.944L216.428 49.648L229.892 64.88C230.526 65.6507 231.093 66.2853 231.592 66.784C232.136 67.2373 232.657 67.6 233.156 67.872C233.7 68.144 234.266 68.348 234.856 68.484C235.49 68.5747 236.238 68.62 237.1 68.62V71H219.216V68.62Z" fill="#101706"/>
<path d="M50.164 357.96C54.1533 357.96 57.8707 358.663 61.316 360.068C64.7613 361.473 67.7533 363.4 70.292 365.848C72.8307 368.296 74.8253 371.175 76.276 374.484C77.7267 377.793 78.452 381.375 78.452 385.228C78.452 388.9 77.704 392.345 76.208 395.564C74.7573 398.783 72.7627 401.593 70.224 403.996C67.6853 406.353 64.6933 408.235 61.248 409.64C57.8027 411 54.108 411.68 50.164 411.68C46.22 411.68 42.5253 411 39.08 409.64C35.6347 408.235 32.6427 406.353 30.104 403.996C27.5653 401.593 25.548 398.783 24.052 395.564C22.6013 392.345 21.876 388.9 21.876 385.228C21.876 381.375 22.6013 377.793 24.052 374.484C25.5027 371.175 27.4973 368.296 30.036 365.848C32.5747 363.4 35.5667 361.473 39.012 360.068C42.4573 358.663 46.1747 357.96 50.164 357.96ZM50.164 407.94C53.156 407.94 55.8307 407.419 58.188 406.376C60.5907 405.333 62.6307 403.837 64.308 401.888C66.0307 399.939 67.3453 397.581 68.252 394.816C69.1587 392.005 69.612 388.877 69.612 385.432C69.612 381.805 69.1587 378.541 68.252 375.64C67.3453 372.693 66.0533 370.2 64.376 368.16C62.6987 366.075 60.6587 364.488 58.256 363.4C55.8533 362.267 53.156 361.7 50.164 361.7C47.172 361.7 44.4747 362.267 42.072 363.4C39.6693 364.488 37.6293 366.075 35.952 368.16C34.2747 370.2 32.9827 372.693 32.076 375.64C31.1693 378.541 30.716 381.805 30.716 385.432C30.716 388.877 31.1693 392.005 32.076 394.816C32.9827 397.581 34.2747 399.939 35.952 401.888C37.6293 403.837 39.6693 405.333 42.072 406.376C44.4747 407.419 47.172 407.94 50.164 407.94ZM95.7628 400.392C95.7628 402.115 95.8308 403.497 95.9668 404.54C96.1028 405.583 96.3748 406.399 96.7828 406.988C97.2361 407.577 97.8481 407.985 98.6188 408.212C99.4348 408.439 100.5 408.575 101.815 408.62V411H83.0468V408.62C84.4068 408.575 85.4948 408.439 86.3108 408.212C87.1268 407.94 87.7614 407.532 88.2148 406.988C88.7134 406.444 89.0308 405.696 89.1668 404.744C89.3481 403.747 89.4388 402.455 89.4388 400.868V371.56C89.4388 369.112 89.3934 367.072 89.3028 365.44C89.2574 363.763 89.1668 362.629 89.0308 362.04C88.8041 360.997 88.2601 360.295 87.3988 359.932C86.5828 359.569 85.0868 359.388 82.9108 359.388V357.076L95.7628 354.56V400.392ZM119.168 400.188C119.168 401.956 119.236 403.384 119.372 404.472C119.553 405.515 119.871 406.353 120.324 406.988C120.777 407.577 121.412 407.985 122.228 408.212C123.044 408.439 124.132 408.575 125.492 408.62V411H105.976V408.62C107.336 408.575 108.447 408.439 109.308 408.212C110.169 407.94 110.827 407.532 111.28 406.988C111.779 406.399 112.096 405.605 112.232 404.608C112.413 403.565 112.504 402.251 112.504 400.664V391.96C112.504 389.331 112.459 387.177 112.368 385.5C112.323 383.777 112.209 382.599 112.028 381.964C111.801 380.921 111.28 380.219 110.464 379.856C109.648 379.448 108.107 379.244 105.84 379.244V376.864L119.168 374.28V400.188ZM111.348 360.476C111.348 359.297 111.756 358.3 112.572 357.484C113.388 356.668 114.385 356.26 115.564 356.26C116.743 356.26 117.74 356.668 118.556 357.484C119.372 358.3 119.78 359.297 119.78 360.476C119.78 361.655 119.372 362.652 118.556 363.468C117.74 364.284 116.743 364.692 115.564 364.692C114.385 364.692 113.388 364.284 112.572 363.468C111.756 362.652 111.348 361.655 111.348 360.476ZM133.58 383.392C133.036 382.032 132.537 380.967 132.084 380.196C131.676 379.38 131.222 378.768 130.724 378.36C130.225 377.952 129.658 377.703 129.024 377.612C128.434 377.476 127.709 377.385 126.848 377.34V374.96H144.868V377.34C143.961 377.385 143.213 377.431 142.624 377.476C142.034 377.521 141.558 377.635 141.196 377.816C140.878 377.952 140.652 378.179 140.516 378.496C140.38 378.768 140.312 379.176 140.312 379.72C140.312 380.491 140.402 381.216 140.584 381.896C140.81 382.576 141.037 383.256 141.264 383.936L148.472 403.656H148.744L154.932 389.036C155.884 386.769 156.564 384.956 156.972 383.596C157.38 382.236 157.584 381.035 157.584 379.992C157.584 378.949 157.312 378.247 156.768 377.884C156.224 377.521 155.045 377.34 153.232 377.34V374.96H166.764V377.34C166.038 377.34 165.381 377.521 164.792 377.884C164.202 378.247 163.681 378.7 163.228 379.244C162.865 379.743 162.48 380.423 162.072 381.284C161.709 382.1 161.324 382.961 160.916 383.868C160.553 384.775 160.213 385.681 159.896 386.588C159.578 387.449 159.284 388.152 159.012 388.696L149.016 411.748H145.072L133.58 383.392ZM201.98 404.676C198.127 409.345 193.344 411.68 187.632 411.68C184.958 411.68 182.532 411.249 180.356 410.388C178.18 409.481 176.299 408.235 174.712 406.648C173.171 405.016 171.97 403.089 171.108 400.868C170.247 398.601 169.816 396.108 169.816 393.388C169.816 390.623 170.27 388.061 171.176 385.704C172.083 383.347 173.352 381.329 174.984 379.652C176.662 377.975 178.634 376.66 180.9 375.708C183.212 374.756 185.728 374.28 188.448 374.28C192.846 374.28 196.246 375.481 198.648 377.884C201.051 380.241 202.252 383.641 202.252 388.084C202.252 388.719 202.116 389.104 201.844 389.24C201.618 389.376 201.051 389.444 200.144 389.444H177.772C177.682 389.807 177.614 390.26 177.568 390.804C177.523 391.303 177.5 391.869 177.5 392.504C177.5 394.861 177.772 397.015 178.316 398.964C178.906 400.868 179.722 402.5 180.764 403.86C181.852 405.22 183.122 406.285 184.572 407.056C186.068 407.781 187.723 408.144 189.536 408.144C191.44 408.144 193.208 407.736 194.84 406.92C196.472 406.059 198.15 404.676 199.872 402.772L201.98 404.676ZM190.76 386.316C191.667 386.316 192.392 386.293 192.936 386.248C193.48 386.203 193.888 386.112 194.16 385.976C194.432 385.84 194.614 385.659 194.704 385.432C194.795 385.16 194.84 384.82 194.84 384.412C194.84 382.327 194.16 380.672 192.8 379.448C191.486 378.179 189.672 377.544 187.36 377.544C182.464 377.544 179.427 380.468 178.248 386.316H190.76ZM211.313 411H209.817V399.304H211.517C213.285 405.696 216.504 408.892 221.173 408.892C222.986 408.892 224.414 408.461 225.457 407.6C226.545 406.693 227.089 405.333 227.089 403.52C227.089 402.84 226.976 402.273 226.749 401.82C226.568 401.321 226.182 400.823 225.593 400.324C225.049 399.78 224.256 399.168 223.213 398.488C222.216 397.808 220.878 396.947 219.201 395.904C217.66 394.952 216.322 394.068 215.189 393.252C214.056 392.436 213.104 391.62 212.333 390.804C211.562 389.943 210.973 389.036 210.565 388.084C210.202 387.132 210.021 386.021 210.021 384.752C210.021 383.211 210.27 381.805 210.769 380.536C211.313 379.221 212.038 378.111 212.945 377.204C213.852 376.297 214.917 375.595 216.141 375.096C217.365 374.552 218.702 374.28 220.153 374.28C221.377 374.28 222.646 374.484 223.961 374.892C225.276 375.255 226.432 375.753 227.429 376.388L228.789 374.96H230.081V384.752H228.313C227.316 381.987 226.228 380.015 225.049 378.836C223.87 377.657 222.42 377.068 220.697 377.068C219.156 377.068 217.909 377.476 216.957 378.292C216.05 379.108 215.597 380.241 215.597 381.692C215.597 382.463 215.71 383.143 215.937 383.732C216.209 384.276 216.617 384.82 217.161 385.364C217.705 385.908 218.385 386.475 219.201 387.064C220.062 387.608 221.082 388.243 222.261 388.968C224.21 390.192 225.865 391.28 227.225 392.232C228.63 393.184 229.764 394.136 230.625 395.088C231.486 395.995 232.121 396.947 232.529 397.944C232.937 398.941 233.141 400.075 233.141 401.344C233.141 404.563 232.098 407.101 230.013 408.96C227.928 410.773 225.185 411.68 221.785 411.68C218.249 411.68 215.212 410.66 212.673 408.62L211.313 411Z" fill="#101706"/>
<path d="M250.5 424.019L250.5 4.99994" stroke="#101706" stroke-width="5" stroke-linecap="round"/>
<path d="M5.5 5L5.5 424" stroke="#101706" stroke-width="5" stroke-linecap="round"/>
</g>
<defs>
<clipPath id="clip0_6_121">
<rect width="256" height="429" fill="white"/>
</clipPath>
</defs>
</svg>
