<svg width="536" height="688" viewBox="0 0 536 688" fill="none" xmlns="http://www.w3.org/2000/svg">
<path d="M9.06876 4.11283C9.06876 11.8416 11.6508 25.0449 15.3086 35.8329C21.7636 54.8865 32.5757 72.0078 48.3367 88.163C86.8516 127.558 148.013 151.066 233.649 159.386C242.955 160.244 261.944 161.479 266.839 161.479C270.658 161.479 272.325 161.801 276.145 163.143C295.725 170.013 315.789 184.182 328.914 200.391L332.841 205.221L330.313 205.758C328.054 206.241 327.354 206.134 323.804 204.792C305.73 197.815 278.942 195.56 259.093 199.318C255.596 199.962 255.435 199.962 251.831 198.405C240.588 193.682 220.416 187.51 202.988 183.484C198.523 182.411 187.98 180.532 179.32 179.191C157.48 175.809 128.433 175.595 106.97 178.654C68.401 184.128 34.1357 200.123 5.89504 225.831L0.838623 230.447L5.35713 234.634C30.0475 257.659 60.7626 272.097 92.8763 275.8C100.353 276.659 119.073 276.498 126.227 275.585C167.97 269.95 208.152 248.588 249.303 209.998L256.349 203.397L261.406 202.484C268.291 201.303 286.58 200.874 294.326 201.733C301.803 202.538 311.109 204.416 318.048 206.617L323.32 208.227L318.586 211.34C302.18 221.913 280.071 246.602 265.494 270.594C258.393 282.187 256.618 286.856 250.54 308.808C246.183 324.695 247.151 322.978 240.481 326.574C236.446 328.828 233.649 330.76 231.067 333.283C227.786 336.503 227.14 336.932 224.182 337.469C220.147 338.274 210.142 341.655 205.193 343.91C200.567 346.003 192.337 350.833 187.388 354.322C150.433 380.46 123.322 430.053 114.769 486.999C112.51 502.242 112.08 508.253 112.134 525.643C112.187 550.707 114.662 569.17 120.74 589.995C140.966 658.856 190.078 697.285 243.332 685.907C273.616 679.413 303.256 655.529 323.965 620.91C327.677 614.738 334.831 600.998 336.122 597.563L336.66 596.114L339.834 599.066C359.629 617.314 382.329 628.424 407.665 632.181C413.529 633.04 429.021 632.933 435.368 631.967C480.177 625.204 514.603 591.176 527.89 540.671C529.235 535.572 530.687 527.843 531.709 520.544C533 511.205 533 489.79 531.709 479.753C526.706 440.734 510.623 405.954 485.717 380.353C474.313 368.599 462.694 359.743 449.623 352.873C422.404 338.65 392.496 335.912 365.708 345.144C359.683 347.184 359.307 347.237 351.453 347.398C345.859 347.452 342.954 347.291 341.986 346.808C338.059 344.983 332.465 331.78 328.914 316.054C327.946 311.867 326.655 297.108 326.171 285.193C325.418 266.676 327.677 258.625 339.834 236.458C346.719 223.953 347.419 221.216 345.159 215.312C344.353 213.004 343.169 211.34 340.802 209.032C339.027 207.315 336.176 204.041 334.509 201.786C321.115 183.753 300.297 168.188 279.372 160.459C276.36 159.332 275.983 159.01 274.047 155.682C265.763 141.459 251.508 122.781 236.608 106.465C197.34 63.6349 147.69 31.7539 94.2748 15.2229C69.2079 7.49418 43.1189 2.8784 14.8783 1.26829L9.06876 0.946207V4.11283ZM318.855 240.484C315.197 262.006 314.982 291.955 318.317 311.76C318.855 315.034 322.943 326.788 327.946 339.669C329.721 344.232 331.55 349.116 332.034 350.511L332.841 353.034L329.936 359.045C328.376 362.373 326.87 365.969 326.709 366.988C326.44 368.33 325.364 369.994 322.943 372.517L319.555 376.166L317.08 373.053C312.938 368.062 303.901 359.099 299.275 355.503C292.605 350.35 288.517 347.774 281.362 344.178C275.23 341.119 274.638 340.636 272.164 337.415C268.937 333.175 264.741 329.418 260.975 327.486C259.415 326.681 257.855 325.393 257.479 324.695C255.166 320.401 258.77 305.051 265.333 291.096C267.807 285.837 275.768 273.009 282.169 263.831C288.571 254.761 292.874 250.145 298.468 246.28C303.148 243.114 317.995 235.063 319.178 235.009C319.555 235.009 319.447 236.942 318.855 240.484Z" fill="#66A37B" fill-opacity="0.2"/>
<path d="M12.1059 4.16654C12.1059 11.8953 14.6879 25.0986 18.3457 35.8866C24.8007 54.9402 35.6128 72.0615 51.3738 88.2167C89.8887 127.612 151.05 151.12 236.686 159.439C245.992 160.298 264.981 161.533 269.876 161.533C273.695 161.533 275.363 161.855 279.182 163.196C298.762 170.066 318.826 184.236 331.951 200.445L335.878 205.275L333.35 205.812C331.091 206.295 330.391 206.188 326.841 204.846C308.767 197.868 281.979 195.614 262.13 199.371C258.633 200.015 258.472 200.015 254.868 198.459C243.625 193.736 223.454 187.563 206.025 183.538C201.56 182.465 191.017 180.586 182.357 179.244C160.517 175.863 131.47 175.648 110.007 178.708C71.4381 184.182 37.1728 200.176 8.93215 225.885L3.87573 230.501L8.39424 234.687C33.0846 257.713 63.7997 272.15 95.9134 275.854C103.39 276.712 122.11 276.551 129.264 275.639C171.007 270.003 211.189 248.642 252.34 210.052L259.386 203.45L264.443 202.538C271.328 201.357 289.617 200.928 297.363 201.786C304.84 202.591 314.146 204.47 321.085 206.671L326.357 208.281L321.623 211.394C305.217 221.967 283.109 246.656 268.531 270.647C261.43 282.241 259.655 286.91 253.577 308.862C249.22 324.749 250.188 323.031 243.518 326.627C239.483 328.881 236.686 330.814 234.104 333.336C230.823 336.557 230.178 336.986 227.219 337.523C223.185 338.328 213.179 341.709 208.23 343.963C203.604 346.056 195.374 350.887 190.425 354.376C153.47 380.514 126.359 430.107 117.807 487.053C115.547 502.295 115.117 508.307 115.171 525.696C115.225 550.761 117.699 569.224 123.777 590.049C144.003 658.91 193.115 697.339 246.369 685.961C276.654 679.466 306.293 655.582 327.003 620.964C330.714 614.792 337.869 601.052 339.159 597.617L339.697 596.167L342.871 599.119C362.666 617.368 385.367 628.478 410.702 632.235C416.566 633.094 432.058 632.986 438.405 632.02C483.214 625.258 517.64 591.23 530.927 540.724C532.272 535.626 533.724 527.897 534.746 520.597C536.037 511.259 536.037 489.843 534.746 479.807C529.744 440.787 513.66 406.008 488.754 380.406C477.35 368.652 465.731 359.796 452.66 352.926C425.441 338.703 395.533 335.966 368.745 345.198C362.72 347.237 362.344 347.291 354.49 347.452C348.896 347.506 345.991 347.345 345.023 346.862C341.096 345.037 335.502 331.833 331.951 316.108C330.983 311.921 329.692 297.161 329.208 285.246C328.455 266.729 330.714 258.679 342.871 236.512C349.756 224.007 350.456 221.269 348.197 215.365C347.39 213.058 346.206 211.394 343.839 209.086C342.064 207.368 339.213 204.094 337.546 201.84C324.152 183.806 303.334 168.242 282.409 160.513C279.397 159.386 279.02 159.064 277.084 155.736C268.8 141.513 254.545 122.835 239.645 106.519C200.377 63.6886 150.727 31.8076 97.3119 15.2767C72.245 7.54789 46.156 2.93211 17.9154 1.322L12.1059 0.999918V4.16654ZM321.892 240.538C318.235 262.06 318.019 292.009 321.354 311.814C321.892 315.088 325.981 326.842 330.983 339.723C332.758 344.285 334.587 349.169 335.071 350.565L335.878 353.087L332.973 359.099C331.413 362.426 329.907 366.022 329.746 367.042C329.477 368.384 328.401 370.048 325.981 372.57L322.592 376.22L320.117 373.107C315.975 368.116 306.938 359.152 302.312 355.556C295.642 350.404 291.554 347.828 284.4 344.232C278.267 341.172 277.676 340.689 275.201 337.469C271.974 333.229 267.778 329.472 264.012 327.54C262.453 326.735 260.893 325.446 260.516 324.749C258.203 320.455 261.807 305.105 268.37 291.15C270.844 285.89 278.805 273.063 285.206 263.885C291.608 254.814 295.911 250.198 301.505 246.334C306.185 243.167 321.032 235.117 322.215 235.063C322.592 235.063 322.484 236.995 321.892 240.538Z" fill="#101706" fill-opacity="0.19"/>
</svg>
